<svg width="46" height="63" viewBox="0 0 46 63" fill="none" xmlns="http://www.w3.org/2000/svg">
<path d="M25.875 22.6122H41.6875L25.875 5.54389V22.6122ZM5.75 0.888885H28.75L46 19.5089V56.7489C46 58.395 45.3942 59.9737 44.3159 61.1377C43.2375 62.3016 41.775 62.9556 40.25 62.9556H5.75C2.55875 62.9556 0 60.1626 0 56.7489V7.09555C0 3.65085 2.55875 0.888885 5.75 0.888885ZM6.095 42.7839L16.8475 54.3904L20.93 50.0147L14.2312 42.7839L20.93 35.5531L16.8475 31.1774L6.095 42.7839ZM38.18 42.7839L27.4275 31.1774L23.345 35.5531L30.0437 42.7839L23.345 50.0147L27.4275 54.3904L38.18 42.7839Z" fill="#696969"/>
</svg>
